<svg height="20pt" viewBox="-27 1 511 511.99847" width="20pt" xmlns="http://www.w3.org/2000/svg"><path d="m249.242188 255.988281c-3.59375-2.0625-8.175782-.824219-10.242188 2.765625-2.117188 3.683594-6.0625 5.96875-10.300781 5.96875-4.242188 0-8.191407-2.285156-10.304688-5.96875-2.066406-3.589844-6.648437-4.828125-10.242187-2.765625-3.589844 2.0625-4.828125 6.648438-2.765625 10.238281 4.785156 8.324219 13.71875 13.496094 23.3125 13.496094 9.589843 0 18.519531-5.171875 23.304687-13.492187 2.066406-3.589844.828125-8.175781-2.761718-10.242188zm0 0"/><path d="m302.597656 203.917969c-4.144531 0-7.5 3.355469-7.5 7.5v11.386719c0 4.140624 3.355469 7.5 7.5 7.5 4.140625 0 7.5-3.359376 7.5-7.5v-11.386719c0-4.144531-3.359375-7.5-7.5-7.5zm0 0"/><path d="m154.796875 230.304688c4.144531 0 7.5-3.359376 7.5-7.5v-11.386719c0-4.144531-3.355469-7.5-7.5-7.5-4.140625 0-7.5 3.355469-7.5 7.5v11.386719c0 4.140624 3.359375 7.5 7.5 7.5zm0 0"/><path d="m296.902344 236.832031c-4.140625 0-7.5 3.355469-7.5 7.5 0 4.140625 3.359375 7.5 7.5 7.5h11.386718c4.144532 0 7.5-3.359375 7.5-7.5 0-4.144531-3.355468-7.5-7.5-7.5zm0 0"/><path d="m160.492188 236.832031h-11.386719c-4.144531 0-7.5 3.355469-7.5 7.5 0 4.140625 3.355469 7.5 7.5 7.5h11.386719c4.140624 0 7.5-3.359375 7.5-7.5 0-4.144531-3.359376-7.5-7.5-7.5zm0 0"/><path d="m449.511719.496094c-4.730469-1.492188-9.78125.460937-12.285157 4.742187l-11.558593 19.792969c-13.761719 23.558594-38.125 39.0625-65.265625 41.589844-25.1875-26.140625-57.972656-44.421875-93.207032-52.03125v-1.839844c0-7.027344-5.71875-12.75-12.75-12.75h-51.5c-7.03125 0-12.75 5.722656-12.75 12.75v1.839844c-35.242187 7.609375-68.011718 25.882812-93.207031 52.03125-27.140625-2.527344-51.5-18.03125-65.261719-41.589844l-11.5625-19.792969c-2.5-4.28125-7.550781-6.234375-12.28125-4.742187-4.726562 1.488281-7.75 5.980468-7.347656 10.921875l3.917969 48.15625c1.9375 23.808593 12.386719 46.023437 29.148437 62.664062-3.023437 2.984375-4.90625 7.121094-4.90625 11.691407v44.140624c0 1.316407.171876 2.585938.464844 3.8125-4.871094 6.992188-7.527344 15.371094-7.527344 23.945313 0 17.554687 10.773438 32.929687 26.777344 39.074219 1.765625 34.167968 7.867188 67.058594 17.648438 94.304687 5.105468 14.222657 18.695312 47.292969 34.59375 47.292969 8.894531 0 15.320312-6.449219 19.667968-13.421875.671876 1.390625 1.390626 2.828125 2.140626 4.289063-37.839844 31.613281-59.4375 77.65625-59.4375 127.132812 0 4.140625 3.359374 7.5 7.5 7.5h316.347656c4.140625 0 7.5-3.359375 7.5-7.5 0-49.554688-21.644532-95.621094-59.566406-127.234375.734374-1.425781 1.433593-2.828125 2.089843-4.1875 4.347657 6.972656 10.773438 13.421875 19.667969 13.421875 15.902344 0 29.488281-33.070312 34.59375-47.292969 9.777344-27.230469 15.875-60.101562 17.644531-94.25 16.066407-6.117187 26.960938-21.644531 26.960938-39.128906 0-8.609375-2.652344-16.949219-7.53125-23.941406.292969-1.226563.464843-2.5.464843-3.816407v-44.140624c0-4.570313-1.878906-8.707032-4.902343-11.691407 16.761719-16.640625 27.210937-38.855469 29.148437-62.664062l3.917969-48.15625c.402344-4.941407-2.621094-9.433594-7.347656-10.921875zm-197.3125 14.503906v41.25c0 4.144531 3.355469 7.5 7.5 7.5 4.140625 0 7.5-3.355469 7.5-7.5v-26.28125c28.5 6.746094 55.117187 21.117188 76.582031 41.3125-6.871094 3.5625-12.6875 8.996094-16.824219 15.957031-5.539062 9.316407-7.253906 19.984375-5.066406 30.261719h-54.695313v-33.25c0-4.144531-3.355468-7.5-7.5-7.5-4.140624 0-7.5 3.355469-7.5 7.5v33.25h-47v-102.5zm156.910156 117.5c.03125 0 .058594.003906.085937.003906.023438 0 .042969-.003906.0625-.003906h3.011719c.785157 0 1.425781.640625 1.425781 1.429688v44.140624c0 .789063-.640624 1.429688-1.425781 1.429688h-11.933593c-.027344 0-.058594 0-.085938 0h-83.652344c-4.144531 0-7.5 3.359375-7.5 7.5 0 4.144531 3.355469 7.5 7.5 7.5h24.117188c-6.09375 44.40625-18.25 69.667969-33.753906 69.667969-18.03125 0-24.339844-9.933594-32.320313-22.507813-8.460937-13.324218-18.992187-29.910156-46.03125-29.910156s-37.570313 16.585938-46.03125 29.910156c-7.980469 12.574219-14.289063 22.507813-32.320313 22.507813-15.476562 0-27.652343-25.285157-33.75-69.667969h172.089844c4.140625 0 7.5-3.355469 7.5-7.5 0-4.140625-3.359375-7.5-7.5-7.5h-231.464844c-.101562 0-.203124-.003906-.304687 0h-11.703125c-.785156 0-1.425781-.640625-1.425781-1.429688v-44.140624c0-.789063.640625-1.429688 1.425781-1.429688h79.726562c.023438 0 .046876.003906.066407.003906s.039062-.003906.058593-.003906h207.324219.132813zm-218.910156-15h-54.695313c2.1875-10.277344.476563-20.941406-5.066406-30.261719-4.132812-6.960937-9.953125-12.394531-16.824219-15.957031 21.46875-20.199219 48.078125-34.566406 76.585938-41.3125zm-173.128907-87.820312 1.707032 2.917968c16.328125 27.953125 45.332031 46.28125 77.589844 49.03125.445312.039063.882812.09375 1.324218.152344.570313.167969 1.152344.257812 1.738282.285156 7.59375 1.496094 14.085937 6.054688 18.117187 12.835938 4.128906 6.949218 4.96875 15.058594 2.433594 22.597656h-69.203125c-18.089844-14.535156-29.484375-35.949219-31.375-59.144531zm19.5625 176.148437c0-4.296875 1.058594-8.511719 3.003907-12.292969 1.71875.613282 3.5625.964844 5.488281.964844h3.917969c-.78125 11.710938-1.179688 21.722656-1.179688 29.832031 0 1.128907.023438 2.25.035157 3.375-6.914063-4.917969-11.265626-12.949219-11.265626-21.878906zm342.554688 291.171875h-300.980469c2.015625-41.261719 20.601563-79.371094 51.894531-106.429688 8.945313 13.542969 17.804688 20.15625 26.9375 20.15625 12.460938 0 20.652344-7.628906 25.703126-15.164062.089843.148438.1875.304688.277343.453125v67.394531c0 8.320313 6.769531 15.089844 15.089844 15.089844h61c8.320313 0 15.085937-6.769531 15.085937-15.089844v-67.394531c.09375-.148437.191407-.304687.28125-.453125 5.050782 7.535156 13.242188 15.164062 25.703126 15.164062 9.152343 0 18.035156-6.648437 27-20.253906 31.371093 27.0625 49.992187 65.199219 52.007812 106.527344zm-119.988281-81.53125v47.941406c0 .050782-.042969.089844-.089844.089844h-23v-33.886719c8.773437-2.074219 16.546875-7.574219 23.089844-14.144531zm-38.089844 48.03125h-23c-.050781 0-.089844-.039062-.089844-.089844v-47.941406c6.542969 6.570312 14.316407 12.070312 23.089844 14.144531zm135.015625-92.035156c-4.414062-.6875-9.917969-11.40625-12.03125-19.152344-.847656-3.15625-3.640625-5.394531-6.902344-5.542969-3.265625-.144531-6.246094 1.835938-7.375 4.898438-7.683594 20.839843-21.742187 44.058593-29.636718 44.058593-12.660157 0-18.046876-18.554687-18.09375-18.71875-.839844-3.042968-3.5-5.234374-6.648438-5.480468-3.152344-.238282-6.117188 1.507812-7.417969 4.386718-4.984375 11.011719-21.777343 39.585938-39.410156 39.585938s-34.425781-28.574219-39.40625-39.582031c-1.292969-2.871094-4.25-4.613281-7.398437-4.382813-3.140626.230469-5.808594 2.417969-6.664063 5.453125-.054687.1875-5.441406 18.738281-18.101563 18.738281-7.894531 0-21.953124-23.21875-29.636718-44.054687-1.128906-3.066406-4.105469-5.046875-7.375-4.902344-3.261719.144531-6.054688 2.386719-6.90625 5.542969-2.089844 7.753906-7.578125 18.472656-12.027344 19.152344-8.351562-4.230469-38.230469-56.925782-38.230469-147.132813 0-8.011719.410157-18.027343 1.214844-29.832031h37.289063c7.378906 56.1875 23.816406 84.667969 48.890624 84.667969 26.277344 0 36.648438-16.339844 44.984376-29.46875 8.140624-12.820313 14.570312-22.949219 33.367187-22.949219s25.226563 10.128906 33.367187 22.949219c8.335938 13.128906 18.707032 29.46875 44.984376 29.46875 25.082031 0 41.515624-28.484375 48.886718-84.667969h37.292969c.804687 11.804688 1.210937 21.820312 1.210937 29.832031 0 90.207031-29.875 142.902344-38.226562 147.132813zm53.195312-143.644532c.007813-1.164062.03125-2.324218.03125-3.488281 0-8.109375-.394531-18.121093-1.175781-29.832031h4.09375c1.929688 0 3.773438-.351562 5.492188-.964844 1.945312 3.773438 3 7.976563 3 12.292969 0 8.9375-4.4375 17.066406-11.441407 21.992187zm28.667969-169.464843c-1.886719 23.195312-13.28125 44.613281-31.371093 59.144531h-69.199219c-2.539063-7.539062-1.699219-15.648438 2.429687-22.597656 4.566406-7.675782 12.285156-12.511719 21.179688-13.269532 32.257812-2.75 61.261718-21.082031 77.589844-49.035156l1.707031-2.917968zm0 0"/></svg>